<svg xmlns="http://www.w3.org/2000/svg" width="115" height="125" viewBox="0 0 115 125">
    <path fill="#FFAD1F" fill-rule="evenodd" d="M0.000489058202,153.981165 L-0.000462461391,150.265554 L2.681,152.484 L10.352,159.293 C12.029,160.833 13.656,162.43 15.312,163.993 L19.340272,167.70588 C21.361,169.56384 23.3944,171.42 25.453,173.256 C27.194,174.762 28.824,176.381 30.446,178.001 C32.068,179.621 33.686,181.244 35.205,182.944 C38.9225,187.268375 42.2833594,191.830641 45.5942187,196.426451 L48.5687715,200.56622 C49.5613086,201.945484 50.557625,203.32225 51.566,204.691 C52.026875,205.31125 52.5002656,205.925453 52.9791055,206.538619 L54.4249062,208.380016 L54.4249062,208.380016 L55.386,209.619 L59.208,214.662 C61.2455962,217.221307 63.1286525,219.919167 64.982008,222.651699 L66.5662364,224.999938 L66.5662364,224.999938 L62.0507103,225.000707 C61.0166403,223.465072 60.0053519,221.917975 59.029,220.351 C53.751,212.43 48.093,204.705 42.073,197.287 C39.178,193.483 36.11,189.832 33.141,186.078 C31.655,184.203 30.038,182.44 28.478,180.621 L27.7980845,179.85116 L27.7980845,179.85116 L26.4426093,178.304799 C25.7621778,177.533414 25.0735598,176.768746 24.3580991,176.028901 L23.633,175.298 C22.5063333,174.158889 21.3707778,173.026296 20.2263333,171.900222 L18.503,170.216 C17.8625,169.5785 17.20175,168.960688 16.5275,168.357078 L10.435,162.958 C9.54366667,162.143333 8.63133333,161.354333 7.698,160.591 C5.84466667,159.050333 4.01533333,157.483667 2.21,155.891 C1.49106401,155.231908 0.750219053,154.600938 0.000489058202,153.981165 Z M0.74075,137.682578 L1.445,138.231 L4.264,140.417 C6.131,141.891 8.031,143.317 9.831,144.866 C11.6216667,146.426 13.3966667,147.999667 15.156,149.587 L16.9114815,151.177296 L16.9114815,151.177296 L17.78,151.982 L20.316,154.471 L25.392,159.431 L30.379,164.481 C33.788,167.763 37.161,171.104 40.611,174.387 C41.7756667,175.466333 42.8781111,176.604778 43.9713704,177.752259 L45.611,179.474 L45.611,179.474 C47.235,181.21 48.87,182.936 50.388,184.755 C54.1136842,189.325105 57.338759,194.193981 60.4970509,199.086517 L62.8600265,202.756056 C63.9106981,204.385114 64.966,206.009158 66.042,207.618 C66.5564,208.3852 67.09192,209.13832 67.634224,209.88728 L69.267152,212.1316 C69.53792,212.50688 69.8068,212.8836 70.072,213.263 C70.956,214.527667 71.8555556,215.783444 72.7623704,217.035667 L76.176,221.73 L78.101,224.63 L78.3415375,224.999554 L73.3745769,224.998646 L72.2927317,223.517873 L72.2927317,223.517873 L70.1043188,220.571167 C69.3758598,219.587704 68.6527497,218.599998 67.948,217.599 C65.350375,213.972563 62.4803242,210.58248 59.5740251,207.224613 L56.6643906,203.869922 C55.373625,202.377 54.09125,200.877 52.838,199.352 C46.062,191.288 39.162,183.289 31.717,175.868 C31.1054444,175.238667 30.4995185,174.604 29.8992222,173.964 L29.003,173 L26.254,170.165 L20.854,164.386 L19.9185036,163.444556 L19.9185036,163.444556 L17.1173627,160.606797 C14.9326015,158.402704 12.7174876,156.224789 10.3591234,154.206422 L9.425,153.422 L6.399,150.863 C5.64525,150.2195 4.8830625,149.586125 4.10315625,148.974688 L3.317,148.371 L-0.00100914066,145.813554 L-0.00100914066,143.172554 L6.225,148.166 C7.10211111,148.931556 7.98524691,149.690049 8.8698642,150.446683 L11.5236173,152.716206 C13.7312099,154.611494 15.9196667,156.527667 18.018,158.546 C23.4532941,163.481529 28.482,168.808201 33.4480997,174.18168 L38.4060708,179.558009 L38.4060708,179.558009 L39.648,180.898 L44.793,186.725 C45.6525,187.6945 46.47325,188.69675 47.285125,189.706625 L48.9058935,191.729097 C49.177,192.065389 49.4493333,192.400667 49.724,192.734 C51.3885,194.721 52.9745,196.7675 54.5475,198.8225 L56.9054375,201.905 C57.693625,202.930375 58.48675,203.9515 59.293,204.962 L61.66425,208.098875 C62.060125,208.621187 62.4573125,209.142594 62.8572812,209.662109 L64.067,211.214 L66.512,214.303 L67.452338,215.572696 C66.8260242,214.62213 66.1999978,213.671036 65.545,212.74 C64.335,210.952 63.167,209.139 62.019,207.313 C61.6323333,206.706333 61.259,206.090778 60.8773704,205.481148 L60.296,204.573 L58.496,201.886 L54.88,196.517 C54.07,195.326333 53.1964444,194.183667 52.3094074,193.050481 L50.975,191.353 L50.975,191.353 C49.8326,189.9402 48.6934,188.521 47.504152,187.139432 L46.602,186.111 L41.938,181.1 L39.596,178.6 L37.176,176.177 C35.566,174.557 33.961,172.937 32.405,171.277 L31.2249531,170.045156 L31.2249531,170.045156 L28.8318594,167.613719 C28.434375,167.206875 28.03925,166.7975 27.649,166.383 C26.3794,165.079 25.15012,163.73084 23.882824,162.420952 L22.924,161.447 L18.043,156.657 L15.568,154.29 L12.978,152.052 C11.235,150.577 9.457,149.138 7.669,147.714 C5.881,146.29 3.986,144.998 2.146,143.644 C1.42484866,143.131654 0.711472287,142.609739 -0.00100914066,142.087389 L-0.000121093879,137.12133 L0.371309684,137.400583 L0.371309684,137.400583 L0.74075,137.682578 Z M0.872,117.318 C3.049,118.784 5.204,120.286 7.304,121.849 C8.096,122.449 8.902625,123.029313 9.690125,123.634234 L10.47,124.249 L13.556,126.749 L16.631625,129.26175 C17.1435625,129.681125 17.6545312,130.101563 18.1635781,130.524219 L19.684,131.8 L27.5987037,138.814074 L27.5987037,138.814074 L28.577,139.7 L31.451,142.428 C33.367,144.244 35.24,146.091333 37.07,147.97 L42.341,153.814 L44.955,156.739 L47.484,159.745 C49.175,161.742 50.885,163.721 52.639,165.667 C53.913,167.168 55.2093125,168.65475 56.5279375,170.12725 L57.854,171.595 L60.533,174.515 C60.9267778,174.951 61.3134444,175.392728 61.6980041,175.836761 L63.14,177.506 L68.305,183.526 C69.629,185.1716 70.90244,186.85304 72.145288,188.546768 L73.072,189.819 L75.416,193.076 C75.99725,193.89275 76.547,194.732562 77.1019531,195.567594 L82.116,203.051 L86.355,209.838 L88.472,213.232 L89.1511111,214.379519 L89.1511111,214.379519 L90.482,216.693 L90.482,216.693 C91.816,219.009 93.105,221.342 94.372,223.681 L95.0325375,224.999554 L89.0796662,224.999554 L88.702,224.391 L88.702,224.391 C86.588875,220.94525 84.5821719,217.433656 82.3998535,214.031068 L81.453,212.58 L77.71,206.744 L73.723,201.07 C68.398,193.494 62.888,186.04 56.938,178.915 C55.429,177.154 53.837,175.461 52.258,173.761 C50.9213333,172.361833 49.6298056,170.919611 48.2624676,169.55181 L47.432,168.741 L42.468,163.858 L40.006,161.402 L37.497,158.997 C35.836,157.382 34.153,155.79 32.445,154.225 C30.737,152.66 28.929,151.202 27.169,149.702 C25.386,148.222 23.651,146.69 21.843,145.244 C20.027,143.808 18.2316667,142.348 16.457,140.864 C15.8694444,140.371111 15.2851481,139.873481 14.7041111,139.371111 L13.835,138.614 L11.186,136.396 L5.94,131.875 C4.217,130.329 2.369,128.943 0.569,127.493 L-0.000462461391,127.047554 L-0.000462461391,124.466554 L1.722,125.664 L2.91834006,126.488703 L2.91834006,126.488703 L5.32677539,128.118316 C5.7266224,128.392385 6.12458681,128.669243 6.51901389,128.951222 L7.458,129.639 L13.077,133.778 L15.864,135.878 L23.961,142.57 L24.3251962,142.868621 L24.3251962,142.868621 L23.3700741,141.994 L22.409,141.102 L16.661,135.727 C15.1058,134.3174 13.51668,132.95132 11.922312,131.5878 L10.726,130.565 C9.01685714,129.102714 7.2937551,127.651449 5.49560933,126.294959 L4.59,125.625 L-0.000462461391,122.216554 L0.00147440051,116.752486 C0.293040014,116.939014 0.583310658,117.127386 0.872,117.318 Z M-0.000462461391,106.980554 L4.539,110.068 C5.979,111.118 7.41011111,112.179556 8.8347037,113.247037 L10.967,114.852 L14.137,117.294 C14.6585,117.7085 15.16925,118.1365 15.676625,118.5685 L17.196,119.867 L23.216,125.097 C25.196,126.866 27.106,128.716 29.065,130.504 L30.236936,131.58208 L30.236936,131.58208 L32.591272,133.72528 C33.37412,134.44208 34.1522,135.1648 34.917,135.904 C36.3705,137.2675 37.8436875,138.611312 39.3331875,139.943453 L40.828,141.272 C41.6324,141.9728 42.41936,142.69376 43.200336,143.421824 L45.536768,145.614272 C45.927,145.97888 46.3186,146.342 46.713,146.702 C50.2779,149.9285 53.66298,153.34778 56.928747,156.851948 L58.013,158.023 C59.0581429,159.126429 60.047449,160.279163 61.0251399,161.441087 L62.4884927,163.185851 C62.7327755,163.476122 62.9777143,163.765714 63.224,164.054 C64.915,166.101 66.665,168.091 68.29,170.191 L69.7101881,172.028031 L69.7101881,172.028031 L72.565696,175.685419 C73.9920366,177.514436 75.4097998,179.349816 76.7899277,181.218023 L77.963,182.828 L82.592,188.988 L87.081,195.274 L89.323,198.418 L91.443,201.645 C92.849,203.799667 94.2263333,205.966333 95.575,208.145 C96.915,210.359 98.044,212.686 99.166,214.997 L100.102128,216.987921 C100.879592,218.646449 101.64,220.309714 102.305,222.024 C102.707561,223.019952 103.113923,224.011929 103.52488,225.001362 L102.526918,225.001362 C101.881674,223.612257 101.251269,222.213932 100.634,220.805 C99.383,218.2 98.107,215.601 96.783,213.019 L95.977928,211.474952 C95.57264,210.70376 95.159,209.9366 94.718,209.186 C94.158,208.254 93.58075,207.331375 92.98625,206.418125 L92.386,205.508 C87.5600952,198.10381 82.0648753,191.17795 76.473099,184.360672 L73.3213167,180.534967 L73.3213167,180.534967 L71.22,177.99 L71.22,177.99 C69.539,176.008 67.825,174.045 66.114,172.079 C64.403,170.113 62.558,168.264 60.79,166.347 C59.6183333,165.062333 58.4246667,163.798778 57.2242222,162.542926 L53.6177778,158.785074 C52.419,157.531222 51.2286667,156.271667 50.062,154.993 C49.1995,154.02 48.303,153.08175 47.397125,152.152375 L45.5801713,150.297792 C45.2776944,149.988111 44.976,149.6775 44.676,149.365 C44.0988252,148.779593 43.5264619,148.188774 42.9546256,147.597207 L44.0332963,148.775 L45.824,150.748 L48.498,153.711 L51.098,156.745 C52.8333333,158.762333 54.6083333,160.743333 56.423,162.688 C57.8262,164.292 59.26524,165.86464 60.728344,167.41872 L61.83,168.581 L64.615,171.465 L67.323,174.423 L72.736,180.357 C74.1189333,181.992733 75.4728533,183.649373 76.79776,185.32692 L77.786,186.589 L80.216,189.781 C80.5631111,190.262778 80.902321,190.750877 81.238107,191.241082 L82.49,193.081 L86.925,199.742 L91.111,206.562 L93.225,209.962 C93.934,211.092 94.582,212.263 95.277,213.405 C95.8525,214.37425 96.4398125,215.334938 97.0306094,216.292313 L98.805125,219.15975 C99.748225,220.68935 100.678925,222.22391 101.563113,223.784934 L102.238538,224.999554 L101.436693,224.99928 C100.840654,223.896193 100.229706,222.800998 99.604,221.714 C98.7934375,220.315063 97.9556641,218.93068 97.1138169,217.550529 L92.922,210.673 L90.604,207.109 C84.3909503,197.16189 77.4612647,187.680781 69.87,178.741 L64.591,172.749 L64.591,172.749 C62.807,170.782 60.941,168.893 59.128,166.961 C57.5902857,165.288714 56.0066531,163.662714 54.4114227,162.046948 L51.2156676,158.818376 C50.1520408,157.739612 49.0934286,156.654714 48.05,155.553 C40.54,148.044 32.791,140.753 24.598,133.953 C22.3122857,131.962714 19.9841224,130.026959 17.6433644,128.103379 L10.829,122.516 L9.248,121.308 L6.077,118.901 L2.89,116.513 C1.94370909,115.798818 0.985463752,115.101373 0.00103458951,114.440584 L-0.000462461391,112.597554 L2.331,114.275 C3.9545,115.5155 5.5890625,116.740813 7.2346875,117.950938 L8.884,119.156 L12.199,121.546 L15.467,124 L22.042,128.875 L28.442,133.975 L30.03425,135.260375 C30.298875,135.475313 30.5624375,135.691469 30.8239062,135.910141 L31.601,136.575 L32.90239,137.741067 C32.4315784,137.287916 31.9626099,136.832914 31.4868389,136.385722 L30.767,135.722 L27.86,133.132 L22.016,127.897 L13.023,120.314 C12.5732222,119.946444 12.117321,119.586 11.6592469,119.227926 L9.939,117.887 L3.706,113.087 C2.47375888,112.196565 1.2387069,111.309508 -0.000462461391,110.427426 L-0.000462461391,106.980554 Z M-0.000462461391,100.006554 L3.802,102.434 C7.45,104.6908 10.96296,107.14664 14.445328,109.639728 L17.053,111.514 L17.053,111.514 C18.3198571,112.423143 19.5429592,113.391388 20.7562653,114.371528 L22.5731224,115.844758 C22.8761224,116.089816 23.1795714,116.334143 23.484,116.577 L24.3870816,117.32002 L24.3870816,117.32002 L26.2010816,118.795408 C27.4091633,119.780143 28.6084286,120.775 29.761,121.827 C33.849,125.445 37.973,129.011 41.981,132.711 C50.154,139.92 58.203,147.331 65.703,155.284 C67.533,157.315 69.31,159.395 71.059,161.495 L72.366125,163.072375 C72.5835625,163.335687 72.7997812,163.600094 73.0132656,163.866922 L73.644,164.676 L81.058,174.481 C82.651,176.701 84.267,178.898 85.934,181.056 L87.8563291,183.586541 L87.8563291,183.586541 L89.7703469,186.116163 C97.4052857,196.236816 104.759571,206.407429 110.859,217.492 L112.841343,221.226695 C113.503097,222.476832 114.162722,223.733301 114.810918,224.999381 L109.760572,224.997623 L106.71427,219.222966 C100.12826,206.805447 93.2137241,194.73131 84.543,183.166 C82.938,181.069 81.294,179 79.654,176.929 C78.834,175.8935 77.97625,174.88925 77.108875,173.893125 L75.369625,171.904856 L74.506,170.906 L71.906,167.919 C71.0526667,166.912333 70.172,165.929333 69.264,164.97 C67.4686667,163.036667 65.693,161.086333 63.937,159.119 C63.073,158.122 62.17725,157.15575 61.271125,156.199375 L58.543,153.339 C57.1735,151.914 55.8225625,150.472125 54.4501094,149.051344 L53.069,147.639 L47.418,142.111 L44.582,139.356 L41.654,136.701 L35.827,131.355 L29.873,126.155 C26.8256667,123.410222 23.6258889,120.842691 20.4110549,118.293376 L17.655,116.109 C16.8086,115.4366 15.94524,114.78708 15.075544,114.146168 L12.458072,112.234984 C12.0222,111.916 11.5874,111.5956 11.155,111.272 L10.0641852,110.476444 L10.0641852,110.476444 L7.8945,108.869 C6.80825,108.0675 5.7145,107.277 4.589,106.532 L-0.000462461391,103.381772 L-0.000462461391,103.381772 L-0.000462461391,100.006554 Z M-0.000462461391,128.900554 L4.152,131.928 L10.581,136.928 C11.382,137.561 12.1981875,138.172063 12.9937031,138.808016 L13.781,139.454 L16.901,142.079 C23.0875263,147.179421 28.7892105,152.80269 34.4153123,158.484338 L39.2287207,163.357787 C39.6298864,163.763294 40.0312632,164.168421 40.433,164.573 L43.194375,167.433625 C44.11875,168.391 45.0485,169.3505 45.988,170.307 C46.7396,171.0722 47.4728,171.85836 48.20008,172.653384 L50.37664,175.052952 C50.7406,175.45328 51.1062,175.8528 51.475,176.25 C54.0797,179.0108 56.53887,181.92742 58.97599,184.865061 L61.06243,187.385043 L62.107,188.643 C62.8532222,189.600333 63.593321,190.56458 64.330808,191.531527 L67.091,195.162 L69.552,198.44 L71.863,201.807 L71.863,201.807 C73.379,204.062 74.903,206.285 76.296,208.562 C77.65,210.867 78.949,213.168 80.171,215.462 C81.7598,218.4468 80.24908,219.49624 78.360632,218.071184 L78.1228056,217.880125 C77.7238056,217.540083 77.3133333,217.091667 76.916,216.53 C73.2289412,211.133529 69.1235433,205.990346 64.9633316,200.862713 L62.4635351,197.786098 C60.379737,195.220637 58.3004118,192.647176 56.271,190.036 C54.515,187.843 52.811,185.609 51.13,183.355 L45.897,176.755 L45.897,176.755 C44.433,174.841 42.8727551,173.013694 41.293723,171.208219 L40.503,170.307 L37.71,167.178 L36.293,165.637 L34.807,164.167 L29.065,158.532 C28.3046,157.776 27.52468,157.04032 26.737592,156.312096 L24.367176,154.136928 C23.97264,153.77384 23.5794,153.4094 23.189,153.042 C21.0328889,150.983111 18.7959136,149.017123 16.5377449,147.073392 L12.4630412,143.583454 C12.0106173,143.194963 11.5587778,142.805667 11.108,142.415 C9.4488,141.0542 7.73776,139.74908 6.021472,138.449464 L4.734,137.475 L1.502,135.058 L-0.000462461391,134.021554 L-0.000462461391,128.900554 Z" transform="translate(0 -100)"/>
</svg>