<svg xmlns="http://www.w3.org/2000/svg" width="122" height="128" viewBox="0 0 122 128">
    <path fill="#98C9D7" fill-rule="evenodd" d="M744.332,0.91 C739.843742,10.4753624 737.08223,20.7590086 736.175,31.286 C736.042,32.62 736.053,33.988 736.005,35.339 L735.961696,37.5064643 C735.956292,37.8677431 735.954312,38.229368 735.959528,38.591832 L735.985,39.409 L736.263,43.509 L736.43,45.556 C736.462444,45.8591111 736.506741,46.1626173 736.554724,46.4661674 L736.736,47.604 L737.436,51.69 L737.621,52.708 L737.877,53.718 L738.41,55.735 C738.772,57.077 739.138,58.42 739.528,59.747 L740.060912,61.295432 C740.32772,62.07008 740.6,62.8412 740.9,63.59 C744.593227,72.8173773 749.628389,81.4468987 755.841111,89.2000838 L756.488,89.999 C757.7016,91.5022 758.92544,92.9926 760.175904,94.430776 L761.119,95.499 C761.466111,95.899 761.817963,96.289321 762.171571,96.676284 L763.5,98.124 L766,100.731 C769.474082,104.261753 773.186478,107.549817 777.111,110.572 C781.279512,113.787545 785.737657,116.608995 790.428,119 C795.51304,121.596789 800.904764,123.543091 806.476,124.793 C809.405319,125.433781 812.377021,125.862559 815.368,126.076 C816.872,126.215 818.418,126.185 819.94,126.215 L820.511375,126.21875 C820.606188,126.219375 820.702094,126.219312 820.801047,126.217531 L821.109,126.206 L822.385,126.128 L824.934,125.928 C831.429242,125.220078 837.738516,123.321737 843.546,120.328 C848.090758,118.007728 852.281991,115.065168 856.00087,111.590412 L856.00087,113.155514 C847.719984,120.513433 837.391631,125.262563 826.321,126.721 C824.629,126.9 822.912,127.014 821.206,127.108 C819.613,127.138 818.128,127.091 816.584,127.055 C815.066,126.974 813.563,126.813 812.053,126.668 C811.3065,126.5765 810.56775,126.46425 809.831125,126.344125 L807.622,125.973 L807.622,125.973 C802.00581,124.876635 796.530736,123.152131 791.3,120.832 C786.454015,118.686755 781.805535,116.120588 777.408,113.163 C773.258357,110.377547 769.318773,107.291255 765.621,103.929 C762.347415,100.963088 759.264266,97.7941181 756.389767,94.4410294 L755.611,93.522 C748.941088,85.6619317 743.566053,76.7893928 739.688,67.238 C738.787425,65.0029857 737.998986,62.7246364 737.325561,60.4114659 L737.044,59.418 L736.021,55.318 L735.534,53.263 L735.196,51.194 L734.579,47.049 L734.435,46.012 L734.361,44.978 L734.224,42.908 C734.168667,41.9886667 734.112444,41.068 734.064519,40.1480741 L734,38.769 L734.081,34.671 C734.457426,23.9987124 736.905881,13.5015009 741.29,3.764 C741.85664,2.49678335 742.448452,1.24198172 743.064979,-6.62046515e-05 L744.760931,-6.62046515e-05 L744.332,0.91 L744.332,0.91 Z M742.985,24.631 C741.070012,34.4773901 741.293045,44.6203042 743.639,54.373 C744.730621,59.050434 746.340574,63.59151 748.439,67.912 C750.433987,72.0777519 752.761875,76.0757264 755.4,79.867 C757.92979,83.5084355 760.668376,87.0002833 763.602,90.325 C765.044,91.965 766.483,93.528 767.989,95.106 C769.495,96.684 771.058,98.226 772.646,99.752 C778.96867,105.988861 786.161333,111.277089 794,115.452 C798.30358,117.670693 802.878165,119.318593 807.608,120.354 C810.065774,120.88594 812.560781,121.228281 815.071,121.378 C816.084123,121.452883 817.099952,121.482603 818.115468,121.467104 L820.777,121.392 L823.001527,121.155931 L823.001527,121.155931 L823.294508,121.132189 L823.294508,121.132189 L823.569828,121.121413 C823.658449,121.119863 823.743813,121.120295 823.825606,121.12253 L824.059963,121.134467 L824.059963,121.134467 L824.271018,121.156149 C825.165517,121.27404 825.295132,121.655368 823.889,121.86 C821.155427,122.265904 818.39141,122.430206 815.629,122.351 L814.023688,122.27628 C813.21796,122.23764 812.4118,122.1882 811.624,122.088 C810.311,121.921 808.972,121.758 807.672,121.521 C802.577561,120.573122 797.628942,118.96314 792.952,116.732 C784.413243,112.535926 776.591667,107.016104 769.777,100.377 C765.999497,96.8091586 762.437541,93.0198013 759.11,89.029 C755.65302,84.9092769 752.527275,80.5226005 749.762,75.91 C748.320183,73.5101476 747.004399,71.0367942 745.82,68.5 C744.743037,66.2270379 743.783445,63.9005567 742.944937,61.529748 L742.593,60.511 C742.183833,59.376 741.849667,58.1882222 741.535523,56.9945417 L740.791,54.12675 C740.699375,53.76775 740.609375,53.4084375 740.522406,53.0486875 L740.272,51.968 L739.564,47.606 L739.243,45.42 L739.088,43.233 C738.375689,32.9142492 739.748646,22.5577194 743.125,12.781 C744.670386,8.38552049 746.530132,4.11452341 748.686955,-0.000235053383 L751.727224,-0.000235053383 C747.594077,7.71972903 744.645466,16.0230145 742.985,24.631 Z M753.371,6.485 L752.420037,8.6247037 L752.420037,8.6247037 L751.963,9.703 L750.763,13.016 C750.223625,14.38225 749.810813,15.7977187 749.417385,17.2206582 L748.947717,18.9290996 L748.707,19.781 C748.5325,20.3445 748.40125,20.92175 748.28275,21.503125 L748.053713,22.6685231 L748.053713,22.6685231 L747.935,23.25 L747.258,26.75 L746.84,30.311 C746.677176,31.4978992 746.577037,32.692557 746.54,33.89 C746.417717,35.9541248 746.398286,38.022844 746.481714,40.0884765 L746.532,41.121 L746.755,44.749 L747.283,48.365 C747.60367,50.4802115 748.038031,52.576391 748.584125,54.6444414 L748.825,55.529 C749.440951,57.869973 750.205502,60.1693018 751.114,62.413 C754.670884,71.0337601 759.647488,78.9974085 765.837,85.973 C771.763501,92.8921238 778.541664,99.0335634 786.01,104.251 C789.932757,106.972908 794.10278,109.319906 798.465,111.261 C803.053968,113.303392 807.891879,114.732675 812.854,115.512 C813.49,115.6015 814.1305,115.676 814.772375,115.745125 L816.699,115.946 L816.699,115.946 C817.994,116.02 819.294,116.047 820.594,116.081 C821.967,116.037 823.372,115.937 824.758,115.837 C826.119,115.647 827.473,115.415 828.826,115.177 C834.097143,114.038077 839.110424,111.928525 843.61,108.956 L843.735397,108.869822 L843.735397,108.869822 L843.968104,108.719506 L843.968104,108.719506 L844.175785,108.597838 L844.175785,108.597838 L844.357351,108.50393 L844.357351,108.50393 L844.511712,108.436897 L844.511712,108.436897 L844.637778,108.395852 C844.842295,108.343885 844.898665,108.418476 844.776666,108.595049 L844.69225,108.701328 C844.658094,108.740027 844.617859,108.78195 844.571365,108.826949 L844.412922,108.971025 C844.383324,108.996527 844.352116,109.02276 844.319275,109.049707 L844.10245,109.219806 C844.062986,109.249533 844.021844,109.279937 843.979,109.311 C838.792883,112.768845 832.959836,115.139891 826.832,116.281 C826.2016,116.385 825.58528,116.52548 824.950272,116.611304 L824.47,116.664 L822.052,116.874 L820.841,116.964 C820.579667,116.974524 820.330333,116.974524 820.080852,116.974524 L817.446,116.958 C815.942,116.926 814.461,116.755 812.961,116.637 L811.198568,116.372904 C810.3158,116.24124 809.4344,116.1018 808.571,115.917 C802.943721,114.727904 797.506302,112.77198 792.411,110.104 C787.581496,107.578374 783.02682,104.558903 778.82,101.094 C774.760246,97.7658059 770.952193,94.1419223 767.427,90.252 C763.868709,86.3706592 760.609393,82.2254786 757.677,77.852 C754.618801,73.3074641 752.02764,68.4655368 749.943,63.4 C748.972312,61.0869867 748.153032,58.7136657 747.490213,56.2950674 L747.249,55.386 L746.206,51.229 C746.0745,50.53 745.9585,49.8285 745.8475,49.126125 L745.519,47.018 L745.239,45.145 C745.194,44.833 745.169,44.52025 745.149,44.207375 L745.089,43.269 L744.873,39.511 C744.840277,39.0434414 744.828903,38.5747148 744.838891,38.1062815 L744.856,37.638 L744.912,35.769 C744.967,34.527 744.969,33.275 745.088,32.042 C745.532126,27.1449944 746.451794,22.3028365 747.834,17.584 C749.622689,11.4614077 752.079463,5.56490555 755.153762,-0.00113188099 L756.633673,0.000340968856 C755.451006,2.10876089 754.362077,4.27234217 753.371,6.485 Z M756.538599,14.5767666 L756.26,15.418 L755.751,16.938 L755.351,18.492 L754.545,21.6 C754.4342,22.0136 754.34692,22.43312 754.268632,22.854912 L754.046216,24.123456 C754.0088,24.3348 753.97,24.5458 753.928,24.756 C753.75,25.814 753.523,26.862 753.386,27.926 C752.822109,32.2013998 752.65473,36.51978 752.886,40.826 C753.367395,49.5002711 755.654524,57.9784876 759.601,65.718 C763.487936,73.2391744 768.371264,80.2019022 774.119,86.418 C779.775689,92.807958 786.339243,98.3334593 793.6,102.818 C797.369217,105.10317 801.380444,106.96289 805.56,108.363 C809.606503,109.71637 813.815099,110.520477 818.073078,110.754756 L818.872,110.792 L820.588,110.848 L822.373,110.758 L824.161,110.652 L825.917,110.39 L827.672,110.11 C827.928,110.056222 828.182222,109.994938 828.435808,109.931064 L829.386,109.689 L831.097,109.247 C831.285,109.190667 831.470889,109.129778 831.655741,109.066593 L832.761,108.678 C837.204239,107.126086 841.341389,104.808077 844.985,101.829 C848.760144,98.777624 851.862887,94.9779299 854.098,90.669 C854.872064,89.1734422 855.508052,87.6180321 856.002012,86.0220706 L856.002012,86.2118592 C855.563068,87.7761337 854.995061,89.3072444 854.301,90.789 C852.221398,95.2260189 849.273694,99.2012884 845.632,102.48 C842.229317,105.578982 838.324926,108.074626 834.087146,109.861325 L833.449,110.124 L831.749,110.795 L829.989,111.324 L828.219,111.834 L826.394,112.192 L824.561,112.525 L823.937481,112.588185 L823.937481,112.588185 L822.684,112.695 L820.8,112.831 L820.195111,112.836074 L820.195111,112.836074 L819,112.818 L819,112.818 C814.266434,112.723871 809.575672,111.900534 805.093,110.377 C800.775125,108.905101 796.641992,106.938701 792.776,104.517 C785.450431,99.7997961 778.774598,94.1429716 772.919,87.691 C766.917988,81.441581 761.763899,74.4309436 757.589,66.839 C755.460022,62.90004 753.744545,58.7512593 752.47,54.459 C751.903295,52.5966643 751.434675,50.7061144 751.066,48.7951483 L750.89,47.838 L750.324,44.481 L750.215,43.3555556 L750.215,43.3555556 L750.039,41.1 L750.039,41.1 C749.393931,32.1347747 750.452238,23.1284777 753.158,14.557 C754.731975,9.5009124 756.807739,4.62487493 759.349073,-0.00013546513 L763.238252,-0.00013546513 C760.674183,4.31625978 758.539049,8.87972865 756.866855,13.6252535 L756.538599,14.5767666 Z M761.406,24.174 C759.381736,32.1680858 759.106809,40.5049178 760.6,48.615 C762.265913,56.5073514 765.456561,63.9958191 769.990169,70.6612191 L770.448,71.325 C775.237076,78.3134469 780.935498,84.6329954 787.393,90.117 C793.724869,95.6620645 801.070339,99.928896 809.024,102.682 C810.673,103.151 811.116,103.648 810.731,103.914 L810.710389,103.923498 L810.710389,103.923498 C811.21115,104.382994 810.884975,105.024244 809.823,104.778 C802.686301,102.9585 795.979502,99.7466443 790.088,95.327 C784.203461,90.9843805 778.816479,86.0052032 774.025,80.48 C769.126492,74.9991347 765.039229,68.8441614 761.888,62.203 C760.443785,59.1437715 759.276524,55.9619893 758.399871,52.6958331 L758.168,51.803 L757.487,49.12 C757.4014,48.7616 757.33468,48.39936 757.275,48.035648 L757.10524,46.942464 L757.10524,46.942464 L757.014,46.397 L756.569,43.668 L756.354,40.915 C755.381409,26.5278111 758.970892,12.2130928 766.591847,-0.000544328008 L768.684,-0.000544328008 L768.434024,0.378817078 C768.266868,0.635096848 768.10155,0.892377323 767.938075,1.15063838 C768.205257,0.764286449 768.476387,0.380535173 768.75144,-0.000544328008 L772.836881,-0.000544328008 C767.549446,7.22438337 763.632337,15.5165833 761.406,24.174 Z M778.356,4.444 C774.435012,9.72745425 771.347147,15.5807722 769.2,21.8 C767.055027,27.9477124 766.117197,34.4517423 766.438,40.955 C766.629392,44.1557067 767.197994,47.3226254 768.132,50.39 C769.091548,53.5112921 770.373458,56.5242005 771.957,59.38 C775.325619,65.3000721 779.377327,70.8043812 784.029,75.78 C788.510723,80.9053749 793.604456,85.4614224 799.196,89.346 C804.486645,92.9014839 810.23806,95.4033777 815.97715,96.0604695 L816.551,96.12 C817.10162,96.1822819 817.654411,96.2228243 818.208082,96.2415498 L818.762,96.253 L819.862,96.264 L820.138125,96.26925 L820.409,96.27 L820.909,96.22 L821.898,96.138 C822.150385,96.1320215 822.401878,96.1075425 822.650461,96.0648091 L823.297136,95.933696 L823.297136,95.933696 L824.097952,95.793952 C824.36504,95.74576 824.632,95.6912 824.898,95.616 C827.630094,94.9445882 830.224023,93.8014322 832.563,92.238 C834.85628,90.7375165 836.859198,88.8345412 838.475,86.621 C839.901677,84.7012157 840.846498,82.466912 841.23,80.106 C841.312962,79.7770618 841.374095,79.4430006 841.413,79.106 C841.449942,78.8457626 841.517061,78.5907119 841.613,78.346 C841.79,77.932 842.001,77.69 842.185,77.646 C842.61,77.548 843.021,78.313 842.931,80.041 C842.553,84.663 839.427,89.669 834.909,93.246 C832.78128,94.9489847 830.413954,96.3268262 827.884483,97.335518 L827.34,97.546 L825.261,98.208 L823.147,98.666 C821.701677,98.9058906 820.23799,99.0176582 818.773,99 C812.378874,98.8198273 806.124762,97.0855486 800.551,93.947 C794.638901,90.6356803 789.212606,86.5234741 784.426,81.727 C779.46315,76.9457932 775.024074,71.6492067 771.184,65.927 C767.408807,60.3438561 764.73927,54.0885695 763.32,47.5 C762.102706,40.920552 762.213205,34.1641231 763.645,27.628 C765.069565,21.0656045 767.456005,14.7497263 770.727,8.885 C772.461166,5.74976286 774.462788,2.7771116 776.706676,-0.00116461993 L781.872541,-0.00116461993 C780.638238,1.42752458 779.464822,2.91050586 778.356,4.444 Z M786.675,-0.000588302748 L786.161,0.48 C785.532,1.08 784.978,1.751 784.378,2.38 L784.026512,2.765504 L784.026512,2.765504 L783.306064,3.527248 C783.0692,3.78464 782.8404,4.0492 782.634,4.332 C778.097195,9.70803303 774.660176,15.922596 772.518,22.623 C772.117732,23.950351 771.771524,25.2932583 771.480194,26.6484009 L771.272,27.667 L770.786,30.204 L770.529,32.748 L770.388,34.018 C770.362,34.3 770.363111,34.5811111 770.362296,34.8619259 L770.356,35.283 L770.302,37.809 C770.2976,38.1462 770.31432,38.48036 770.3384,38.813272 L770.41896,39.810056 C770.43148,39.97616 770.4424,40.1424 770.45,40.309 C770.467515,40.9315003 770.514731,41.5526914 770.591452,42.170456 L770.678,42.787 C770.886949,44.4174434 771.20195,46.0325337 771.621,47.622 C771.838,48.413 772,49.208 772.238,50.001 C772.498,50.793 772.752,51.586 773.061,52.373 C774.291386,55.6182445 775.827286,58.7392647 777.648,61.694 C779.402668,64.56399 781.361031,67.3043614 783.508,69.894 C785.458534,72.2718158 787.531829,74.5458718 789.719344,76.7069216 L790.545,77.512 C795.17176,82.104644 800.515313,85.9134578 806.366,88.789 C810.765823,90.8660148 815.637674,91.7393525 820.485,91.32 C824.40566,90.6972687 828.164049,89.3037621 831.543,87.22 C832.1,86.9 832.44,87.1 832.545,87.533 C832.597273,87.7780922 832.567402,88.0335769 832.46,88.26 C832.309525,88.5338655 832.088114,88.762184 831.819,88.921 C829.658852,90.2410098 827.318114,91.2373417 824.871459,91.8791882 L824.305,92.021 L823.826,92.154 L823.348,92.219 L822.87225,92.2915 L822.87225,92.2915 L822.399,92.375 C822.092372,92.4380561 821.780042,92.4692219 821.467,92.468 C821.159667,92.4846667 820.853,92.509 820.547,92.541 C820.34092,92.5554 820.119173,92.558536 819.889426,92.5572316 L818.827448,92.53764 L818.827448,92.53764 L818.39,92.541 L816.163,92.358 C810.201,91.639 803.801,88.949 797.918,84.833 C794.722467,82.5984457 791.702953,80.1221896 788.886,77.426 C787.463,76.055 786.006,74.612 784.643,73.132 C783.28,71.652 781.952,70.152 780.715,68.611 C775.920656,62.659 772.07042,56.1767607 770.227996,49.3797506 L770.056,48.721 L769.425,46.26 L769.047,43.733 L768.847,42.471 C768.802,42.15375 768.794688,41.8303125 768.780344,41.5082812 L768.609,38.616 C768.5898,38.2732 768.593,37.92784 768.604264,37.581584 L768.647912,36.541792 L768.647912,36.541792 L768.698,34.723 L768.714,34.074 L768.796,33.423 C768.953704,31.6770895 769.207085,29.941147 769.555,28.223 C769.677,27.6483333 769.782111,27.0718889 769.897889,26.4966296 L770.083,25.635 L770.816,23.078 L771.173,21.798 L771.319519,21.3779259 L771.319519,21.3779259 L771.631,20.542 L772.548,18.03 C772.6716,17.696 772.8128,17.36776 772.960336,17.041568 L773.410688,16.065424 C773.48516,15.90252 773.5584,15.7392 773.629,15.575 L773.852864,15.086784 L773.852864,15.086784 L774.281248,14.102528 C774.42816,13.77632 774.5848,13.4544 774.768,13.144 C774.98875,12.753 775.201,12.3575 775.411156,11.9609687 L776.04175,10.77175 C776.4665,9.9815 776.9085,9.201 777.419,8.458 C779.230371,5.4517768 781.284966,2.62443954 783.553491,-0.000588302748 L786.675,-0.000588302748 Z M793.021,-0.000877719913 L792.202,0.745 C791.9804,0.9458 791.77112,1.16132 791.566288,1.382088 L790.957264,2.050664 C790.85536,2.16156 790.7526,2.2714 790.648,2.379 C790.26925,2.79975 789.868,3.1951875 789.488547,3.61298437 L789.118,4.04 L787.703,5.814 C786.7,6.946 785.94,8.272 785.04,9.487 C784.715538,9.95256244 784.409127,10.4303644 784.121432,10.9193397 L783.84,11.412 L782.666,13.348 L781.645,15.361 C781.3826,15.9002 781.0658,16.417 780.816968,16.960552 L780.645,17.374 L779.745,19.423 L779.433815,20.1018148 L779.433815,20.1018148 L779.294,20.445 L778.923,21.488 C776.825387,26.8429894 775.692239,32.5270105 775.576,38.277 C775.581554,40.7559202 775.829207,43.2277763 776.315092,45.6574113 L776.468,46.385 L776.906,48.36 C777.06875,48.86025 777.202813,49.361625 777.36725,49.8611719 L777.544,50.36 C778.01369,51.7208838 778.554774,53.0560687 779.165,54.36 C781.957227,60.0668055 785.547571,65.3470995 789.828,70.042 C793.815621,74.6766695 798.429792,78.7308743 803.536182,82.0881437 L804.269,82.563 C808.422111,85.2889021 813.215305,86.8748636 818.168061,87.1668858 L818.719,87.194 L820.313,87.142 C820.699,87.052 821.072,87.036 821.466,86.978 C821.874,86.849 822.277,86.787 822.693,86.687 L823.11363,86.5334444 L823.11363,86.5334444 L823.964,86.267 L823.964,86.267 C825.721759,85.5943667 827.362805,84.6494914 828.827,83.467 C829.301424,82.9111593 830.124736,82.8164304 830.713,83.25 C830.942551,83.4487966 831.058661,83.7484339 831.023,84.05 C830.926089,84.4691503 830.700991,84.8476921 830.379,85.133 C828.992466,86.3318286 827.43584,87.3168698 825.760743,88.0564161 L825.301,88.252 L824.616,88.552 L823.922,88.752 L823.233,88.98 C823.004,89.058 822.779,89.065 822.553,89.12 C822.225692,89.208386 821.892915,89.2745354 821.556947,89.3180479 L821.22,89.354 C821.004,89.372 820.789,89.397 820.573,89.427 L820.356926,89.460037 L820.356926,89.460037 L820.242,89.474 L819.821,89.468 C814.99703,89.478292 810.248097,88.2973956 805.994569,86.0339632 L805.506,85.768 C800.441892,83.0352642 795.790288,79.6017404 791.688252,75.5700186 L791.106,74.99 C790.2132,74.1004 789.30184,73.17624 788.416976,72.222128 L787.759,71.501 C786.658,70.308 785.631,69.084 784.621,67.858 C782.668723,65.4593788 780.876831,62.9345618 779.257,60.3 C777.734987,57.8105156 776.422471,55.1988633 775.333,52.492 C774.328762,49.9280659 773.584692,47.2697133 773.112,44.557 C772.194,39.0042005 772.336514,33.3277381 773.532,27.828 C774.808013,22.1086633 777.175624,16.689269 780.505,11.867 C783.495042,7.5239403 786.975282,3.54191678 790.875772,-0.000877719913 L793.021,-0.000877719913 Z" transform="translate(-734)"/>
</svg>